:SAMPLES-PER-SECOND 30
:FRAME-RANGE 1-3535
:FULLY-SPECIFIED
:DEGREES
1547
root  -27.8277 38.2395 -15.2032 -178.285 19.4903 -178.343
RightUpLeg  -22.3433 22.8867 -3.54503
RightLeg  31.9676 6.48607 4.11009
RightFoot  -10.8947 -0.093182 4.92204
RightToes  5.38503e-012 1.26228e-014 -6.01869e-014
Spine  4.44298 1.08519 3.89348
Spine1  5.3755 0.744734 2.01634
HEad  -4.79143 -37.3992 16.8701
LeftShoulder1  1.62383 -3.1683 -18.7928
LeftArm  1.49643 6.21267 -50.0945
LeftForeArm  46.3069 7.15783 -14.1789
LeftHand  -0.0141842 5.7753 3.88594
RightShoulder  1.92527 2.66845 26.2219
RightArm  -9.41088 20.1658 62.1052
RightForeArm  63.8129 -0.326763 10.292
RightHand  0.036422 -5.71451 -17.6926
LeftUpLeg  -20.9692 -17.8038 18.4887
LeftLeg  28.0479 -13.7501 -7.49886
LeftFoot  -10.8288 0.110115 -10.1283
LeftToes  8.9788e-011 3.29689e-010 2.1201e-011
1548
root  -28.5994 38.0908 -15.5453 -177.311 22.8906 -177.592
RightUpLeg  -24.1364 24.4145 -4.72062
RightLeg  32.7813 8.21491 5.426
RightFoot  -11.1246 -0.0864238 5.73281
RightToes  5.38503e-012 1.26228e-014 -6.01869e-014
Spine  5.26149 0.880854 2.83266
Spine1  5.19799 0.368428 2.71552
HEad  -4.90315 -34.9175 17.8138
LeftShoulder1  1.70034 -3.5979 -18.3056
LeftArm  2.95569 6.13472 -50.161
LeftForeArm  46.4318 6.98644 -14.4399
LeftHand  -0.00452641 6.0337 4.22225
RightShoulder  1.87936 2.45465 26.6325
RightArm  -8.85155 20.1734 62.574
RightForeArm  62.9824 0.3067 10.6133
RightHand  0.0221793 -5.62196 -17.5979
LeftUpLeg  -21.0532 -21.4921 19.9711
LeftLeg  27.6705 -16.6972 -8.97276
LeftFoot  -13.1025 -0.118173 -12.7349
LeftToes  8.9788e-011 3.29689e-010 2.1201e-011
1549
root  -29.4314 38.0017 -15.7939 -175.807 26.5385 -176.764
RightUpLeg  -26.7077 26.3385 -6.42226
RightLeg  33.0578 9.88185 6.62867
RightFoot  -10.5361 -0.120785 6.98476
RightToes  5.38503e-012 1.26228e-014 -6.01869e-014
Spine  5.79815 0.637004 1.41228
Spine1  5.27043 -0.0351103 3.27865
HEad  -5.76563 -32.1192 19.2667
LeftShoulder1  1.81215 -4.17294 -17.8756
LeftArm  3.51396 5.87111 -50.2733
LeftForeArm  46.5525 6.97484 -14.447
LeftHand  -0.00534957 5.95708 4.48613
RightShoulder  1.84102 2.22517 27.3132
RightArm  -8.85855 20.1533 62.0356
RightForeArm  62.2107 -0.408747 10.6552
RightHand  0.0244174 -5.62083 -18.3933
LeftUpLeg  -21.2859 -19.2355 19.7225
LeftLeg  28.3145 -16.4646 -9.08238
LeftFoot  -14.7863 -0.261167 -11.5901
LeftToes  8.9788e-011 3.29689e-010 2.1201e-011
1550
root  -30.3519 38.0437 -15.9409 -173.99 30.101 -175.756
RightUpLeg  -29.3105 27.7745 -8.33756
RightLeg  32.0697 11.8966 7.70721
RightFoot  -8.7503 -0.260894 8.8836
RightToes  5.38503e-012 1.26228e-014 -6.01869e-014
Spine  6.60257 0.236138 -0.132854
Spine1  5.31241 -0.618538 3.94135
HEad  -6.85717 -28.718 20.4937
LeftShoulder1  1.86142 -4.49361 -17.4813
LeftArm  4.10315 4.99368 -50.4015
LeftForeArm  45.2438 7.04141 -14.4541
LeftHand  -0.00778882 5.86774 4.59796
RightShoulder  1.74751 1.8467 27.9544
RightArm  -10.114 20.3929 61.0914
RightForeArm  63.054 -2.28017 9.92914
RightHand  0.0168566 -5.56779 -18.6884
LeftUpLeg  -21.3811 -15.3102 18.7997
LeftLeg  28.006 -14.9872 -8.16135
LeftFoot  -15.3488 -0.223804 -9.00642
LeftToes  8.9788e-011 3.29689e-010 2.1201e-011
1551
root  -31.3391 38.2618 -16.0266 -171.688 33.8157 -174.631
RightUpLeg  -31.7227 28.4408 -10.4152
RightLeg  29.238 14.7123 8.54255
RightFoot  -5.52918 -0.598457 11.013
RightToes  5.38503e-012 1.26228e-014 -6.01869e-014
Spine  7.29614 -0.0279736 -1.39147
Spine1  5.16721 -0.974754 4.39297
HEad  -7.75262 -25.5914 21.1804
LeftShoulder1  1.91484 -4.85058 -17.0588
LeftArm  2.41926 3.85357 -50.3574
LeftForeArm  47.0242 5.88161 -13.9651
LeftHand  -0.0337641 5.10155 4.09823
RightShoulder  1.7705 1.90909 27.9929
RightArm  -12.1333 20.159 59.45
RightForeArm  63.7941 -4.47412 8.84456
RightHand  0.0569089 -5.81343 -18.8593
LeftUpLeg  -22.0664 -14.1014 18.5418
LeftLeg  26.8372 -12.4188 -6.4145
LeftFoot  -14.4971 -0.158879 -8.90149
LeftToes  8.9788e-011 3.29689e-010 2.1201e-011
1552
root  -32.3262 38.5421 -16.0894 -169.038 37.9203 -173.443
RightUpLeg  -33.8648 28.6117 -12.1187
RightLeg  25.2883 16.934 8.34382
RightFoot  -1.57294 -1.15257 13.3061
RightToes  5.38503e-012 1.26228e-014 -6.01869e-014
Spine  7.44773 -0.0164449 -2.16196
Spine1  5.48332 -0.992681 4.49008
HEad  -7.98147 -22.7719 21.1569
LeftShoulder1  1.95784 -5.15176 -16.7028
LeftArm  1.49798 2.37942 -49.8812
LeftForeArm  46.6848 4.16115 -13.5961
LeftHand  -0.0251313 5.3592 5.07781
RightShoulder  1.69064 1.63273 28.2756
RightArm  -15.3217 20.1761 57.9397
RightForeArm  65.5934 -6.05748 7.08147
RightHand  0.119998 -6.17512 -19.4469
LeftUpLeg  -22.6824 -11.627 18.1057
LeftLeg  25.1857 -10.4879 -5.00269
LeftFoot  -12.9464 -0.0431551 -8.59652
LeftToes  8.9788e-011 3.29689e-010 2.1201e-011
1553
root  -33.2042 38.8409 -16.1446 -166.724 41.5392 -172.491
RightUpLeg  -34.0637 26.698 -11.48
RightLeg  21.3459 14.1722 5.83093
RightFoot  1.29235 -1.47312 13.3322
RightToes  5.38503e-012 1.26228e-014 -6.01869e-014
Spine  7.09692 -0.0833442 -2.54183
Spine1  6.07923 -0.886899 3.73215
HEad  -7.14666 -20.7756 20.1255
LeftShoulder1  1.98434 -5.41386 -16.2761
LeftArm  1.65406 0.322134 -48.8694
LeftForeArm  45.5398 2.62957 -13.4663
LeftHand  -0.0405909 4.96991 5.17721
RightShoulder  1.67608 1.63624 27.9456
RightArm  -20.4226 19.0284 57.047
RightForeArm  68.349 -5.51219 4.37925
RightHand  0.217821 -6.72295 -19.944
LeftUpLeg  -22.8894 -8.34248 17.3193
LeftLeg  22.9644 -9.81326 -4.20055
LeftFoot  -10.9838 0.0913805 -8.21816
LeftToes  8.9788e-011 3.29689e-010 2.1201e-011
